<?xml version="1.0" encoding="UTF-8"?>
<!DOCTYPE svg PUBLIC "-//W3C//DTD SVG 1.1//EN" "http://www.w3.org/Graphics/SVG/1.1/DTD/svg11.dtd">
<!-- Creator: CorelDRAW X7 -->
<svg xmlns="http://www.w3.org/2000/svg" xml:space="preserve" width="110mm" height="155.571mm" version="1.1" style="shape-rendering:geometricPrecision; text-rendering:geometricPrecision; image-rendering:optimizeQuality; fill-rule:evenodd; clip-rule:evenodd"
viewBox="0 0 11000 15557"
 xmlns:xlink="http://www.w3.org/1999/xlink">
 <defs>
  <style type="text/css">
   <![CDATA[
    .str0 {stroke:#332C2B;stroke-width:10.4762}
    .fil0 {fill:none}
   ]]>
  </style>
   <clipPath id="id0">
    <path d="M5379 635c2225,0 4030,1923 4030,4294 0,2371 -1805,4294 -4030,4294 -2226,0 -4030,-1923 -4030,-4294 0,-2371 1804,-4294 4030,-4294z"/>
   </clipPath>
    <clipPath id="id1">
     <path d="M5379 635c2225,0 4030,1923 4030,4294 0,2371 -1805,4294 -4030,4294 -2226,0 -4030,-1923 -4030,-4294 0,-2371 1804,-4294 4030,-4294z"/>
    </clipPath>
    <clipPath id="id2">
     <path d="M5379 635c2225,0 4030,1923 4030,4294 0,2371 -1805,4294 -4030,4294 -2226,0 -4030,-1923 -4030,-4294 0,-2371 1804,-4294 4030,-4294z"/>
    </clipPath>
 </defs>
 <g id="Layer_x0020_1">
  <metadata id="CorelCorpID_0Corel-Layer"/>
  <g>
  </g>
  <g style="clip-path:url(#id0)">
   <g>
   </g>
   <g style="clip-path:url(#id1)">
    <image x="1349" y="635" width="8060" height="12090" xlink:href="foto_Images\foto_ImgID1.png"/>
   </g>
   <g style="clip-path:url(#id2)">
   </g>
  </g>
  <path class="fil0 str0" d="M5379 635c2225,0 4030,1923 4030,4294 0,2371 -1805,4294 -4030,4294 -2226,0 -4030,-1923 -4030,-4294 0,-2371 1804,-4294 4030,-4294z"/>
 </g>
</svg>
